<?xml version="1.0" standalone="no"?>
<!DOCTYPE svg PUBLIC "-//W3C//DTD SVG 20010904//EN"
 "http://www.w3.org/TR/2001/REC-SVG-20010904/DTD/svg10.dtd">
<svg version="1.0" xmlns="http://www.w3.org/2000/svg"
 width="271.000000pt" height="271.000000pt" viewBox="0 0 271.000000 271.000000"
 preserveAspectRatio="xMidYMid meet">
<metadata>
Created by potrace 1.14, written by Peter Selinger 2001-2017
</metadata>
<g transform="translate(0.000000,271.000000) scale(0.100000,-0.100000)"
fill="#000000" stroke="none">
<path d="M1026 2680 c-33 -16 -67 -37 -76 -45 -9 -8 -20 -15 -24 -15 -4 0 -29
-14 -54 -32 -26 -17 -58 -39 -72 -48 -14 -9 -42 -23 -63 -30 -36 -14 -61 -47
-88 -117 -17 -44 7 -22 34 31 23 46 43 66 63 66 2 0 -1 -9 -8 -19 -7 -11 -16
-17 -22 -14 -5 3 -6 1 -2 -6 10 -15 -15 -82 -27 -74 -6 3 -7 1 -3 -5 4 -7 -4
-31 -18 -55 -15 -24 -26 -50 -26 -58 0 -8 -9 -25 -20 -39 -16 -20 -20 -22 -20
-7 0 9 5 17 10 17 6 0 10 8 10 18 -1 15 -2 15 -15 -2 -25 -32 -17 -5 15 57 17
31 27 57 22 57 -4 0 -26 -35 -47 -77 -48 -93 -53 -106 -26 -73 25 30 29 7 5
-28 -8 -12 -11 -22 -6 -22 6 0 13 7 16 16 4 9 9 14 13 11 3 -4 -1 -17 -9 -29
-20 -31 -29 -81 -14 -75 9 4 10 -9 3 -54 -5 -32 -14 -59 -19 -59 -12 0 -26 41
-34 100 -5 41 -3 54 11 70 10 11 15 23 12 26 -4 4 -15 -4 -26 -17 -23 -27 -21
-81 6 -177 l15 -53 -49 -57 c-73 -87 -373 -384 -426 -422 -26 -18 -45 -36 -42
-38 3 -3 15 3 28 14 12 11 42 33 67 50 25 16 67 52 94 79 32 32 42 39 29 20
-35 -52 -38 -61 -13 -40 l23 20 -7 -25 c-7 -24 -7 -24 6 -3 7 12 25 31 41 43
15 12 27 28 27 36 0 8 4 14 9 14 5 0 16 3 25 6 11 4 16 1 16 -10 0 -9 -4 -16
-9 -16 -5 0 -7 -10 -5 -22 2 -13 1 -17 -2 -10 -5 10 -10 10 -25 -4 -10 -9 -19
-21 -19 -26 0 -10 -11 -24 -57 -74 -18 -19 -42 -53 -54 -74 -13 -22 -26 -40
-31 -40 -4 0 -5 -6 -2 -14 3 -7 -6 -26 -19 -42 -13 -16 -27 -38 -31 -49 -3
-11 -15 -31 -26 -45 -20 -24 -20 -23 1 30 11 30 27 75 34 100 20 68 39 116 54
134 9 10 9 16 2 16 -12 0 -61 -91 -61 -113 0 -7 -12 -42 -26 -78 -21 -52 -53
-190 -54 -233 0 -21 12 5 24 51 13 48 98 186 133 214 15 13 15 12 4 -8 -9 -17
-9 -50 -1 -135 12 -125 28 -227 38 -243 4 -5 12 -30 18 -55 11 -42 12 -43 13
-13 1 29 17 101 55 248 l13 50 8 -70 c9 -91 51 -264 81 -339 13 -33 24 -63 24
-68 0 -4 14 -29 31 -56 17 -26 28 -39 25 -29 -8 26 -19 149 -20 222 0 70 13
169 27 205 8 21 12 10 27 -78 13 -74 24 -110 39 -126 12 -12 21 -35 22 -52 0
-16 3 -23 6 -16 4 10 9 8 20 -7 12 -18 12 -24 -5 -48 -57 -85 -82 -124 -116
-180 -27 -46 -45 -65 -64 -69 -71 -15 -74 -18 -71 -92 2 -60 -1 -73 -29 -120
-18 -29 -32 -58 -32 -64 0 -6 -6 -19 -14 -27 -14 -16 -76 -127 -76 -136 0 -15
19 -1 29 22 l13 28 14 -28 15 -27 684 0 c533 0 685 3 685 13 0 8 4 7 10 -3 14
-22 13 5 -1 32 -8 15 -8 23 1 32 9 8 11 7 9 -4 -5 -31 13 -70 32 -70 21 0 39
32 22 37 -7 3 -8 16 -2 40 4 20 7 40 6 43 -3 9 63 113 68 108 2 -2 -3 -26 -11
-53 -8 -28 -19 -68 -24 -90 -5 -22 -12 -50 -15 -62 -6 -19 -4 -23 14 -23 16 0
21 6 22 28 0 15 4 36 9 47 6 13 7 4 3 -26 l-5 -46 286 -2 286 -2 -5 33 c-13
100 -25 218 -23 253 1 39 1 39 8 -10 4 -27 13 -101 21 -162 7 -62 16 -113 20
-113 9 0 4 78 -17 260 -8 69 -14 146 -14 170 0 25 -7 67 -15 94 -8 27 -12 60
-9 75 5 21 3 23 -6 11 -10 -13 -11 -13 -7 0 2 8 10 15 18 15 25 0 49 66 50
135 l0 65 21 -45 c13 -27 25 -85 31 -147 10 -93 12 -102 30 -99 25 4 56 76 56
134 1 23 -10 84 -23 135 -14 50 -35 135 -47 187 -12 52 -34 140 -50 194 -16
55 -27 102 -24 104 3 3 14 -4 26 -16 11 -13 24 -20 29 -17 6 3 7 -1 3 -11 -4
-10 0 -22 10 -29 9 -7 31 -30 48 -51 40 -52 201 -215 207 -210 4 5 -61 96
-123 171 -41 50 -145 201 -145 211 0 3 -11 20 -24 37 -13 18 -43 66 -66 107
-23 41 -55 98 -71 125 -29 51 -62 118 -171 345 -33 69 -72 150 -86 180 -15 30
-43 80 -63 110 -87 133 -109 167 -109 173 0 17 -108 157 -121 157 -5 0 -25 11
-45 25 -20 14 -49 25 -65 25 -15 0 -58 11 -96 24 -78 27 -221 62 -243 59 -40
-5 -110 -5 -150 0 -37 6 -55 2 -104 -23z m74 -8 c-165 -88 -241 -143 -260
-189 -10 -24 -36 -33 -27 -10 3 8 1 20 -3 27 -7 11 -11 11 -24 0 -9 -7 -19
-11 -21 -8 -3 3 7 11 23 18 15 8 36 21 47 31 25 20 177 110 225 132 50 24 84
22 40 -1z m215 -2 c-3 -5 -31 -10 -61 -10 -30 0 -54 5 -54 10 0 6 27 10 61 10
37 0 58 -4 54 -10z m92 -16 c-3 -3 -12 -4 -19 -1 -8 3 -5 6 6 6 11 1 17 -2 13
-5z m327 -120 c5 -14 4 -15 -9 -4 -17 14 -19 20 -6 20 5 0 12 -7 15 -16z
m-928 -68 c1 -17 -2 -23 -12 -19 -10 4 -11 10 -3 24 13 24 14 24 15 -5z m-19
-59 c-5 -15 -29 -16 -34 -2 -2 6 6 11 18 12 12 1 19 -3 16 -10z m304 -120
c-10 -9 -11 -8 -5 6 3 10 9 15 12 12 3 -3 0 -11 -7 -18z m34 -154 l4 -48 -9
44 c-5 23 -12 53 -15 65 -5 18 -4 18 5 4 5 -9 12 -38 15 -65z m-34 20 c-12
-20 -14 -14 -5 12 4 9 9 14 11 11 3 -2 0 -13 -6 -23z m-475 -78 c-8 -33 -15
-50 -15 -38 -1 31 22 131 26 113 2 -9 -3 -42 -11 -75z m460 9 c-4 -14 -9 -24
-12 -21 -3 2 -2 17 2 31 3 15 9 25 11 22 3 -3 2 -17 -1 -32z m-157 -37 c1 -5
-3 -5 -9 -2 -5 3 -10 16 -9 28 0 21 1 21 9 2 5 -11 9 -24 9 -28z m300 -21 c1
-42 -5 -29 -12 24 -4 30 -3 38 3 25 5 -11 9 -33 9 -49z m358 32 c-3 -7 -5 -2
-5 12 0 14 2 19 5 13 2 -7 2 -19 0 -25z m-30 0 c-3 -8 -6 -5 -6 6 -1 11 2 17
5 13 3 -3 4 -12 1 -19z m-410 -20 c-3 -7 -5 -2 -5 12 0 14 2 19 5 13 2 -7 2
-19 0 -25z m-240 -30 c-3 -8 -6 -5 -6 6 -1 11 2 17 5 13 3 -3 4 -12 1 -19z
m-203 -249 c7 -23 6 -23 -6 -4 -8 13 -13 62 -14 135 l-2 115 8 -111 c4 -62 11
-122 14 -135z m493 204 c-3 -10 -5 -4 -5 12 0 17 2 24 5 18 2 -7 2 -21 0 -30z
m-590 -50 c-2 -16 -4 -3 -4 27 0 30 2 43 4 28 2 -16 2 -40 0 -55z m571 2 c0
-16 -2 -15 -8 5 -4 14 -8 34 -8 45 0 16 2 15 8 -5 4 -14 8 -34 8 -45z m81 0
c0 -5 -6 -1 -14 9 -8 11 -15 27 -15 35 1 17 29 -26 29 -44z m-692 -2 c-3 -10
-5 -2 -5 17 0 19 2 27 5 18 2 -10 2 -26 0 -35z m340 -10 c-3 -10 -5 -4 -5 12
0 17 2 24 5 18 2 -7 2 -21 0 -30z m371 -28 c-3 -3 -9 2 -12 12 -6 14 -5 15 5
6 7 -7 10 -15 7 -18z m125 -16 c-29 -12 -36 -10 -23 6 6 8 8 20 4 27 -4 7 3 4
15 -7 21 -18 21 -20 4 -26z m120 26 c-3 -9 -8 -14 -10 -11 -3 3 -2 9 2 15 9
16 15 13 8 -4z m-967 -32 c-2 -21 -13 -58 -24 -82 -12 -25 -22 -51 -22 -58 0
-8 -11 -53 -25 -101 -14 -48 -34 -127 -45 -177 -19 -86 -20 -87 -13 -25 4 36
6 91 5 123 -2 33 1 64 6 70 5 7 17 44 27 82 9 39 21 78 26 88 18 33 -6 16 -39
-29 -19 -26 -38 -42 -44 -38 -7 5 -9 1 -5 -9 4 -12 0 -18 -16 -22 -12 -3 -30
-20 -39 -36 -10 -17 -22 -28 -28 -24 -5 3 -7 0 -5 -7 3 -8 -9 -27 -27 -43
l-32 -30 17 28 c10 15 16 31 13 35 -3 5 37 52 88 104 52 53 110 117 131 142
21 25 41 46 45 46 5 0 7 -17 6 -37z m33 5 c6 -18 7 -28 2 -23 -10 12 -25 55
-18 55 3 0 10 -15 16 -32z m418 0 c-3 -7 -5 -2 -5 12 0 14 2 19 5 13 2 -7 2
-19 0 -25z m87 0 c9 -43 2 -45 -11 -3 -6 19 -8 35 -3 35 4 0 10 -14 14 -32z
m-116 -3 c-3 -3 -9 2 -12 12 -6 14 -5 15 5 6 7 -7 10 -15 7 -18z m-334 -55 c5
-19 2 -16 -13 10 -11 19 -20 42 -20 50 0 18 24 -25 33 -60z m636 29 c0 -4 -8
-9 -18 -11 -10 -3 -19 0 -19 6 0 7 9 12 19 12 10 0 18 -3 18 -7z m260 1 c-8
-5 -19 -10 -25 -10 -5 0 -3 5 5 10 8 5 20 10 25 10 6 0 3 -5 -5 -10z m-462
-30 c7 -12 16 -19 21 -16 4 3 8 -9 8 -25 l0 -31 -15 28 c-8 16 -21 37 -30 47
-8 9 -11 17 -6 17 5 0 15 -9 22 -20z m302 10 c0 -5 -8 -10 -17 -10 -15 0 -16
2 -3 10 19 12 20 12 20 0z m43 3 c-7 -2 -19 -2 -25 0 -7 3 -2 5 12 5 14 0 19
-2 13 -5z m-401 -29 c23 -14 -34 -24 -74 -13 -61 16 -98 7 -157 -37 -8 -7 30
-54 44 -54 10 0 15 -10 15 -27 0 -16 11 -50 23 -78 13 -27 27 -63 31 -79 11
-45 60 -109 105 -139 23 -15 41 -32 41 -37 0 -6 5 -10 12 -10 6 0 25 -10 42
-23 17 -12 52 -34 79 -47 26 -14 43 -26 38 -28 -16 -5 -204 100 -264 149 -32
25 -68 61 -79 79 -30 50 -110 302 -103 327 3 15 15 23 38 26 43 6 195 -1 209
-9z m584 -11 c-7 -7 -26 7 -26 19 0 6 6 6 15 -2 9 -7 13 -15 11 -17z m-976
-18 c0 -5 -5 -3 -10 5 -5 8 -10 20 -10 25 0 6 5 3 10 -5 5 -8 10 -19 10 -25z
m840 25 c0 -13 -11 -13 -30 0 -12 8 -11 10 8 10 12 0 22 -4 22 -10z m60 0 c0
-5 -2 -10 -4 -10 -3 0 -8 5 -11 10 -3 6 -1 10 4 10 6 0 11 -4 11 -10z m-160
-4 c0 -2 -11 -11 -25 -20 -20 -13 -23 -13 -19 -2 3 8 13 17 22 19 10 3 18 5
20 6 1 0 2 -1 2 -3z m66 -31 c19 -18 22 -25 11 -25 -26 0 -47 12 -40 23 4 6 0
8 -10 4 -10 -3 -17 -2 -17 2 0 8 5 11 27 20 1 1 14 -10 29 -24z m124 11 c0
-22 -32 -29 -49 -10 -15 15 -14 16 6 10 12 -4 24 -2 28 4 9 14 15 13 15 -4z
m-485 -16 c21 -23 11 -27 -12 -5 -8 8 -19 12 -25 9 -7 -4 -8 -2 -4 4 10 17 20
15 41 -8z m-168 4 c-3 -3 -12 -4 -19 -1 -8 3 -5 6 6 6 11 1 17 -2 13 -5z m-42
-13 c-3 -6 5 -19 17 -30 25 -24 12 -29 -17 -7 -11 8 -25 12 -32 9 -7 -3 -13 2
-13 10 0 15 14 25 38 26 7 1 11 -3 7 -8z m640 -1 c3 -5 2 -10 -4 -10 -5 0 -13
5 -16 10 -3 6 -2 10 4 10 5 0 13 -4 16 -10z m-545 -20 c0 -5 -4 -10 -10 -10
-5 0 -10 5 -10 10 0 6 5 10 10 10 6 0 10 -4 10 -10z m-230 -45 c0 -5 -5 -3
-10 5 -5 8 -10 20 -10 25 0 6 5 3 10 -5 5 -8 10 -19 10 -25z m-83 -7 c-3 -7
-5 -2 -5 12 0 14 2 19 5 13 2 -7 2 -19 0 -25z m132 -115 c-5 -49 -14 -149 -19
-223 -6 -74 -17 -160 -25 -190 -13 -50 -14 -51 -10 -13 11 89 14 228 6 198 -5
-16 -9 -23 -10 -14 -2 24 17 210 31 307 11 80 12 82 24 53 10 -23 11 -52 3
-118z m838 115 c-3 -7 -5 -2 -5 12 0 14 2 19 5 13 2 -7 2 -19 0 -25z m-504
-70 c-9 -20 -10 -17 -9 20 1 35 2 39 10 23 6 -13 5 -29 -1 -43z m50 -3 c4 -32
3 -43 -3 -30 -8 19 -14 93 -6 84 2 -2 6 -26 9 -54z m638 -18 c-10 -9 -11 -8
-5 6 3 10 9 15 12 12 3 -3 0 -11 -7 -18z m-691 -11 c0 -3 -4 -8 -10 -11 -5 -3
-10 -1 -10 4 0 6 5 11 10 11 6 0 10 -2 10 -4z m-606 -48 c-3 -24 -14 -77 -24
-118 -25 -104 -44 -310 -37 -400 10 -135 26 -255 36 -284 12 -30 14 -53 5 -44
-9 10 -54 139 -70 203 -15 58 -19 202 -9 320 2 28 5 61 5 75 1 14 4 19 7 11 7
-18 30 48 39 109 5 38 16 82 39 158 9 28 15 9 9 -30z m-164 -65 c-12 -43 -29
-95 -36 -116 -8 -21 -16 -66 -19 -100 -2 -34 -7 -113 -11 -176 -8 -131 -16
-125 -39 30 -24 157 -21 196 22 286 21 43 43 84 50 91 7 7 13 18 13 23 0 17
34 62 38 50 2 -6 -6 -46 -18 -88z m66 -47 c-9 -61 -17 -124 -18 -140 -2 -16
-9 -31 -15 -34 -10 -3 -13 16 -13 72 0 44 4 76 10 76 6 0 10 8 10 18 0 14 -2
15 -10 2 -5 -8 -10 -10 -10 -4 0 5 4 14 8 20 5 5 17 37 28 72 26 84 30 53 10
-82z m730 117 c-10 -10 -19 5 -10 18 6 11 8 11 12 0 2 -7 1 -15 -2 -18z m451
-35 c-3 -8 -6 -5 -6 6 -1 11 2 17 5 13 3 -3 4 -12 1 -19z m-447 -8 c0 -5 -5
-10 -11 -10 -5 0 -7 5 -4 10 3 6 8 10 11 10 2 0 4 -4 4 -10z m470 -23 c0 -2
-19 -21 -42 -42 -24 -22 -40 -37 -37 -33 39 53 79 91 79 75z m19 -64 c-2 -46
-2 -47 -8 -13 -4 19 -5 41 -3 48 8 24 12 11 11 -35z m-351 10 c-16 -2 -40 -2
-55 0 -16 2 -3 4 27 4 30 0 43 -2 28 -4z m82 -25 c0 -12 -6 -9 -26 13 -19 22
-19 22 4 8 12 -8 22 -17 22 -21z m327 10 c-3 -8 -6 -5 -6 6 -1 11 2 17 5 13 3
-3 4 -12 1 -19z m-107 -22 c0 -2 -7 -7 -16 -10 -8 -3 -12 -2 -9 4 6 10 25 14
25 6z m-80 -16 c0 -5 -10 -15 -22 -21 l-23 -12 20 21 c23 24 25 25 25 12z
m-1173 -47 c-3 -10 -5 -2 -5 17 0 19 2 27 5 18 2 -10 2 -26 0 -35z m2111 22
c-3 -3 -9 2 -12 12 -6 14 -5 15 5 6 7 -7 10 -15 7 -18z m-1012 -31 c-15 -14
-31 -22 -35 -18 -3 4 0 9 7 11 7 3 18 11 25 19 7 7 17 13 22 13 6 0 -3 -11
-19 -25z m74 13 c0 -2 -10 -12 -22 -23 l-23 -19 19 23 c18 21 26 27 26 19z
m960 -17 c0 -5 -2 -10 -4 -10 -3 0 -8 5 -11 10 -3 6 -1 10 4 10 6 0 11 -4 11
-10z m-1743 -42 c-3 -8 -6 -5 -6 6 -1 11 2 17 5 13 3 -3 4 -12 1 -19z m1820
-66 c46 -56 60 -88 17 -37 -47 55 -84 108 -84 119 0 6 6 2 12 -9 6 -11 31 -44
55 -73z m-1187 73 c0 -6 -57 -35 -70 -35 -22 0 -8 16 23 27 40 13 47 14 47 8z
m277 -17 c-3 -8 -6 -5 -6 6 -1 11 2 17 5 13 3 -3 4 -12 1 -19z m-1250 -110
c-2 -18 -4 -4 -4 32 0 36 2 50 4 33 2 -18 2 -48 0 -65z m988 82 c-3 -5 -12
-10 -18 -10 -7 0 -6 4 3 10 19 12 23 12 15 0z m-39 -47 c0 -16 4 -48 9 -72 8
-42 7 -43 -14 -36 -14 4 -31 1 -46 -9 -30 -20 -33 -6 -4 19 16 15 19 26 14 56
-5 31 -3 39 17 53 12 9 23 16 23 16 0 0 0 -12 1 -27z m326 -61 c6 -7 8 -16 4
-19 -13 -13 -26 21 -24 62 l1 40 4 -35 c3 -19 9 -41 15 -48z m-1055 -9 c-3
-10 -5 -4 -5 12 0 17 2 24 5 18 2 -7 2 -21 0 -30z m2013 2 c7 -9 8 -15 2 -15
-5 0 -12 7 -16 15 -3 8 -4 15 -2 15 2 0 9 -7 16 -15z m-1482 -27 c-53 -94
-135 -207 -147 -203 -12 5 -12 3 0 -11 12 -15 11 -16 -18 -10 -26 6 -34 3 -52
-20 l-21 -27 2 24 c2 13 10 27 18 30 11 5 7 9 -12 14 -16 4 -28 11 -28 16 0 5
-14 9 -31 9 -17 0 -28 4 -24 10 3 6 1 10 -4 10 -6 0 -11 7 -11 15 0 8 8 15 17
15 11 0 14 3 7 10 -19 19 -53 -1 -60 -36 -3 -19 -10 -34 -14 -34 -5 0 -14 -17
-21 -37 -7 -21 -14 -32 -17 -25 -2 7 8 37 22 66 14 29 26 58 26 64 0 5 14 15
32 21 24 9 34 8 40 -1 4 -7 8 -8 8 -3 0 26 129 70 234 79 18 2 34 12 44 29 20
32 29 28 10 -5z m492 -13 c-7 -9 -23 -21 -34 -27 -15 -7 -12 -1 9 19 31 30 48
35 25 8z m-1133 -67 c-2 -13 -4 -5 -4 17 -1 22 1 32 4 23 2 -10 2 -28 0 -40z
m1670 30 c-3 -8 -6 -5 -6 6 -1 11 2 17 5 13 3 -3 4 -12 1 -19z m-916 -19 c-13
-11 -26 -17 -29 -14 -7 6 29 34 43 34 6 0 -1 -9 -14 -20z m240 0 l24 -20 -30
17 c-39 24 -40 24 -28 24 6 0 21 -9 34 -21z m79 8 c0 -2 -10 -12 -21 -23 -22
-19 -22 -19 -10 4 10 18 31 31 31 19z m-199 -59 c59 -24 79 -36 79 -49 0 -5
-15 0 -32 11 -18 10 -61 28 -96 39 -63 20 -63 20 -100 0 l-37 -20 30 26 c35
30 68 29 156 -7z m806 0 c-3 -8 -6 -5 -6 6 -1 11 2 17 5 13 3 -3 4 -12 1 -19z
m211 -98 l0 -25 -8 25 c-4 14 -8 43 -8 65 l0 40 9 -40 c4 -22 8 -51 7 -65z
m-1579 40 c0 -10 -3 -8 -9 5 -12 27 -12 43 0 25 5 -8 9 -22 9 -30z m405 26
c-3 -8 -13 -17 -22 -21 -13 -5 -13 -2 3 15 21 24 26 25 19 6z m316 10 c0 -2
-8 -10 -17 -17 -16 -13 -17 -12 -4 4 13 16 21 21 21 13z m-66 -60 c-3 -7 -34
-37 -70 -65 -53 -43 -63 -55 -53 -67 15 -18 2 -18 -16 0 -12 11 -4 21 47 62
33 27 68 57 76 67 20 21 23 21 16 3z m723 -8 c-3 -8 -6 -5 -6 6 -1 11 2 17 5
13 3 -3 4 -12 1 -19z m-1385 -10 c-7 -7 -12 -8 -12 -2 0 14 12 26 19 19 2 -3
-1 -11 -7 -17z m341 -3 c-3 -9 -8 -14 -10 -11 -3 3 -2 9 2 15 9 16 15 13 8 -4z
m-362 -46 c-5 -13 -10 -19 -10 -12 -1 15 10 45 15 40 3 -2 0 -15 -5 -28z m225
4 c57 -36 56 -49 -1 -21 -58 28 -67 23 -167 -97 -83 -100 -135 -151 -143 -143
-3 3 11 21 32 39 21 19 58 59 82 89 47 58 142 160 150 160 2 0 23 -12 47 -27z
m1369 -120 c-15 -27 -16 -27 -10 -3 4 14 10 52 13 85 l7 60 3 -57 c2 -39 -2
-66 -13 -85z m-1670 72 c-10 -19 -19 -34 -22 -32 -2 3 4 21 13 41 10 19 19 34
22 32 2 -3 -4 -21 -13 -41z m270 14 c17 -8 16 -8 -7 -4 -22 4 -33 -2 -62 -37
-20 -23 -36 -37 -36 -32 0 12 67 84 77 83 4 0 17 -5 28 -10z m331 -53 c3 -8 4
-29 2 -47 -3 -32 -3 -31 -14 14 -9 43 -1 67 12 33z m841 -18 c-3 -8 -6 -5 -6
6 -1 11 2 17 5 13 3 -3 4 -12 1 -19z m108 -8 c3 -5 1 -10 -4 -10 -6 0 -11 5
-11 10 0 6 2 10 4 10 3 0 8 -4 11 -10z m-1598 -65 c-1 -36 1 -65 5 -65 4 0 8
-9 8 -20 0 -11 -1 -20 -3 -20 -1 0 -32 -9 -70 -19 -37 -11 -67 -18 -67 -16 0
5 37 71 65 115 12 19 29 47 39 63 9 15 19 27 21 27 3 0 4 -29 2 -65z m1842
-14 c1 -61 -5 -49 -12 24 -4 38 -3 53 3 40 5 -11 9 -40 9 -64z m-1653 41 c-18
-16 -18 -16 -6 6 6 13 14 21 18 18 3 -4 -2 -14 -12 -24z m54 24 c0 -2 -8 -10
-17 -17 -16 -13 -17 -12 -4 4 13 16 21 21 21 13z m1143 -54 c-32 -32 -78 -83
-102 -114 -23 -31 -48 -59 -56 -62 -17 -6 131 173 172 209 54 48 44 24 -14
-33z m117 54 c0 -2 -8 -10 -17 -17 -16 -13 -17 -12 -4 4 13 16 21 21 21 13z
m45 -6 c-3 -5 -16 -15 -28 -21 -21 -10 -21 -9 2 10 25 23 36 27 26 11z m-1171
-16 c3 -8 2 -12 -4 -9 -6 3 -10 10 -10 16 0 14 7 11 14 -7z m1114 -44 c-7 -11
-17 -20 -22 -20 -5 0 -1 9 9 20 10 11 20 20 22 20 2 0 -2 -9 -9 -20z m-830
-97 c-1 -110 -5 -97 -10 35 -2 39 0 72 5 72 4 0 6 -48 5 -107z m981 62 c0 -5
-4 -3 -9 5 -5 8 -9 22 -9 30 0 16 17 -16 18 -35z m-1292 9 c-3 -3 -12 -4 -19
-1 -8 3 -5 6 6 6 11 1 17 -2 13 -5z m71 -1 c-10 -2 -26 -2 -35 0 -10 3 -2 5
17 5 19 0 27 -2 18 -5z m-111 -9 c-3 -3 -12 -4 -19 -1 -8 3 -5 6 6 6 11 1 17
-2 13 -5z m1131 -14 c-7 -11 -17 -20 -22 -20 -5 0 -1 9 9 20 10 11 20 20 22
20 2 0 -2 -9 -9 -20z m220 -47 l11 -33 -37 1 c-34 0 -35 1 -14 11 14 7 22 20
22 36 0 30 4 27 18 -15z m-1238 23 c0 -11 -19 -15 -25 -6 -3 5 1 10 9 10 9 0
16 -2 16 -4z m47 -45 c-9 -3 -36 28 -37 43 0 5 10 -2 23 -15 12 -13 18 -26 14
-28z m1153 39 c0 -5 -5 -10 -11 -10 -5 0 -7 5 -4 10 3 6 8 10 11 10 2 0 4 -4
4 -10z m-210 -3 c0 -2 -10 -12 -21 -23 -22 -19 -22 -19 -10 4 10 18 31 31 31
19z m-1170 -24 c-126 -7 -158 -13 -163 -34 -3 -10 -12 -19 -21 -19 -9 0 -46
-12 -83 -26 -38 -14 -79 -30 -93 -35 -14 -5 -38 -19 -53 -32 l-27 -22 16 -58
c20 -77 13 -97 -10 -27 -10 30 -26 63 -37 73 -12 11 -19 31 -19 55 0 42 2 43
129 84 103 32 198 46 311 45 58 0 80 -2 50 -4z m170 -33 c0 -5 -5 -10 -11 -10
-5 0 -7 5 -4 10 3 6 8 10 11 10 2 0 4 -4 4 -10z m938 -10 c-7 -10 -14 -17 -17
-15 -4 4 18 35 25 35 2 0 -1 -9 -8 -20z m-821 -32 c-3 -7 -5 -2 -5 12 0 14 2
19 5 13 2 -7 2 -19 0 -25z m1045 4 c-23 -24 -29 -26 -39 -13 -7 8 -13 20 -13
25 0 6 4 5 8 -1 6 -10 12 -10 28 2 33 25 44 16 16 -13z m83 18 c3 -5 -3 -10
-14 -10 -12 0 -21 5 -21 10 0 6 6 10 14 10 8 0 18 -4 21 -10z m-1262 -25 c-3
-9 -8 -14 -10 -11 -3 3 -2 9 2 15 9 16 15 13 8 -4z m915 -14 c-7 -11 -19 -23
-26 -26 -7 -3 -3 8 10 24 26 32 36 34 16 2z m278 -18 c-32 -29 -35 -9 -4 24
14 15 24 20 27 12 2 -6 -8 -22 -23 -36z m111 1 c1 -21 0 -32 -3 -24 -3 8 -8
22 -11 30 -11 29 -11 41 0 37 7 -2 13 -21 14 -43z m-37 17 c0 -12 -29 -35 -36
-28 -7 6 17 36 29 37 4 0 7 -4 7 -9z m-993 -63 c-2 -13 -4 -5 -4 17 -1 22 1
32 4 23 2 -10 2 -28 0 -40z m831 6 c-26 -26 -38 -33 -43 -24 -5 7 -4 11 1 8 5
-3 15 1 23 9 12 13 11 14 -8 8 -12 -4 -21 -2 -21 4 0 6 3 10 8 10 4 -1 9 0 12
1 3 1 14 3 25 5 11 2 21 9 23 15 2 6 7 9 10 5 3 -3 -10 -22 -30 -41z m-267
-37 c-35 -33 -33 -21 3 20 11 13 22 20 25 18 3 -3 -10 -20 -28 -38z m306 27
c-20 -11 -27 -20 -22 -32 5 -14 4 -15 -7 -4 -11 11 -9 17 11 33 13 10 28 19
35 19 6 -1 -2 -8 -17 -16z m-404 -19 c-3 -9 -8 -14 -10 -11 -3 3 -2 9 2 15 9
16 15 13 8 -4z m274 -71 c-26 -25 -47 -43 -47 -39 0 10 84 94 89 89 2 -2 -17
-25 -42 -50z m-309 17 c-7 -12 -16 -21 -21 -21 -4 0 0 11 10 24 22 29 30 27
11 -3z m-404 -21 c-6 -5 -24 21 -24 34 0 6 6 1 14 -10 8 -10 12 -21 10 -24z
m775 -2 c-1 -24 -4 -34 -6 -23 -3 11 -10 23 -17 27 -8 6 -7 8 2 8 6 0 12 7 12
15 0 8 2 15 5 15 3 0 4 -19 4 -42z m-1696 12 c3 -11 1 -18 -4 -14 -5 3 -9 12
-9 20 0 20 7 17 13 -6z m1421 5 c-4 -8 -11 -15 -16 -15 -6 0 -5 6 2 15 7 8 14
15 16 15 2 0 1 -7 -2 -15z m-1452 -31 c1 -17 -13 -58 -35 -102 -20 -39 -37
-80 -37 -90 -1 -15 -2 -15 -15 2 -22 29 -19 51 18 114 18 31 39 69 46 84 17
33 20 32 23 -8z m1060 -23 c58 -31 148 -90 148 -97 0 -2 -30 15 -67 37 -36 22
-76 45 -87 50 -41 19 -71 39 -59 39 7 0 36 -13 65 -29z m259 11 c-5 -10 -18
-25 -28 -33 -12 -10 -11 -5 6 19 24 35 38 43 22 14z m134 -1 c-3 -10 -8 -36
-10 -57 -3 -21 -8 -40 -12 -43 -7 -7 4 96 12 109 10 17 17 11 10 -9z m221 -6
c-9 -9 -16 -13 -16 -8 0 12 22 34 28 28 2 -2 -3 -11 -12 -20z m-1628 -75 c0
-9 -3 -7 -8 5 -5 11 -8 29 -8 40 0 16 2 15 8 -5 4 -14 8 -32 8 -40z m1555 47
c-19 -32 -89 -116 -100 -121 -7 -3 -15 0 -19 6 -4 6 -3 8 3 5 13 -8 55 41 47
55 -4 6 -3 8 3 5 6 -4 23 9 39 28 28 35 42 46 27 22z m50 -72 c4 -24 3 -34 -2
-25 -5 8 -12 35 -15 60 -4 29 -3 38 2 25 5 -11 12 -38 15 -60z m-1636 13 c-3
-8 -6 -5 -6 6 -1 11 2 17 5 13 3 -3 4 -12 1 -19z m1671 -14 c-3 -14 -5 -12
-10 9 -3 19 -2 25 4 19 6 -6 8 -18 6 -28z m-1571 4 c-3 -8 -6 -5 -6 6 -1 11 2
17 5 13 3 -3 4 -12 1 -19z m1473 -3 c-7 -9 -15 -13 -18 -10 -3 2 1 11 8 20 7
9 15 13 18 10 3 -2 -1 -11 -8 -20z m-1500 -11 c0 -2 -9 -4 -20 -4 -11 0 -20 4
-20 9 0 5 9 7 20 4 11 -3 20 -7 20 -9z m1461 -32 c-11 -21 -51 -58 -51 -48 0
7 52 66 58 66 1 0 -2 -8 -7 -18z m-1451 -5 c0 -7 -9 -13 -20 -13 -25 0 -26 13
-2 19 9 3 18 5 20 6 1 0 2 -5 2 -12z m1597 -9 c-3 -8 -6 -5 -6 6 -1 11 2 17 5
13 3 -3 4 -12 1 -19z m-760 -20 c-3 -7 -5 -2 -5 12 0 14 2 19 5 13 2 -7 2 -19
0 -25z m534 -11 c-10 -9 -11 -8 -5 6 3 10 9 15 12 12 3 -3 0 -11 -7 -18z"/>
<path d="M1060 1015 c0 -8 -5 -15 -12 -15 -6 0 -8 -3 -5 -6 8 -8 37 14 37 27
0 5 -4 9 -10 9 -5 0 -10 -7 -10 -15z"/>
<path d="M908 982 c-33 -7 -18 -18 17 -14 19 2 35 5 35 7 0 6 -36 11 -52 7z"/>
<path d="M850 958 c0 -4 7 -8 15 -8 8 0 15 4 15 8 0 5 -7 9 -15 9 -8 0 -15 -4
-15 -9z"/>
<path d="M980 905 c0 -8 2 -15 4 -15 2 0 6 7 10 15 3 8 1 15 -4 15 -6 0 -10
-7 -10 -15z"/>
<path d="M612 578 c-5 -7 -12 -22 -14 -33 -2 -15 3 -21 22 -24 24 -3 24 -2 7
16 -19 21 -23 38 -7 28 6 -3 10 1 10 9 0 19 -4 20 -18 4z"/>
<path d="M626 2283 c-6 -14 -5 -15 5 -6 7 7 10 15 7 18 -3 3 -9 -2 -12 -12z"/>
<path d="M552 2005 c0 -16 2 -22 5 -12 2 9 2 23 0 30 -3 6 -5 -1 -5 -18z"/>
<path d="M208 1493 c7 -3 16 -2 19 1 4 3 -2 6 -13 5 -11 0 -14 -3 -6 -6z"/>
<path d="M586 715 c-9 -26 -7 -32 5 -12 6 10 9 21 6 23 -2 3 -7 -2 -11 -11z"/>
<path d="M1750 104 c-7 -30 -9 -58 -6 -61 3 -3 8 8 11 23 4 16 11 41 15 56 5
16 5 30 0 33 -5 3 -14 -20 -20 -51z"/>
</g>
</svg>
